<?xml version="1.0" encoding="UTF-8" standalone="no"?>
<!DOCTYPE svg PUBLIC "-//W3C//DTD SVG 1.1//EN" "http://www.w3.org/Graphics/SVG/1.1/DTD/svg11.dtd">
<svg width="100%" height="100%" viewBox="0 0 1280 800" version="1.1" xmlns="http://www.w3.org/2000/svg" xmlns:xlink="http://www.w3.org/1999/xlink" xml:space="preserve" xmlns:serif="http://www.serif.com/" style="fill-rule:evenodd;clip-rule:evenodd;stroke-linecap:round;stroke-linejoin:round;stroke-miterlimit:1.5;">
    <g transform="matrix(0.346428,0,0,0.348483,885.989,557.575)">
        <g transform="matrix(1,0,0,1,-640,-400)">
            <g id="Generic-Server-turned-on" serif:id="Generic Server turned on" transform="matrix(6.94863,0,0,6.94863,-2619.32,-2036.52)">
                <g id="Chassis">
                    <path d="M379.014,357.958L449.038,392.969L560.252,337.362L490.228,302.351L379.014,357.958Z" style="fill:rgb(102,102,102);"/>
                    <path d="M449.038,392.969L449.038,407.386L560.252,351.779L560.252,337.362L449.038,392.969Z" style="fill:rgb(153,153,153);"/>
                    <g transform="matrix(0.143913,0,0,0.143913,376.954,293.083)">
                        <path d="M14.311,550.967L500.879,794.251L500.879,694.076L14.311,450.791L14.311,550.967Z" style="fill:rgb(34,34,34);"/>
                    </g>
                </g>
                <g id="Cooling">
                    <g transform="matrix(1.60284,0,0,1,-224.584,-16.4973)">
                        <path d="M379.054,385.904L404.819,406.172L404.842,406.198L404.859,406.234L404.868,406.277L404.868,406.321L404.86,406.364L404.844,406.401L404.821,406.428L404.794,406.442L404.766,406.443L404.739,406.429L378.974,386.161L378.951,386.135L378.934,386.099L378.925,386.057L378.925,386.012L378.933,385.969L378.95,385.933L378.972,385.906L378.999,385.891L379.027,385.891L379.054,385.904Z" style="fill:rgb(226,226,226);"/>
                    </g>
                    <g transform="matrix(1.60284,0,0,1,-224.584,-21.3321)">
                        <path d="M379.054,385.904L404.819,406.172L404.842,406.198L404.859,406.234L404.868,406.277L404.868,406.321L404.86,406.364L404.844,406.401L404.821,406.428L404.794,406.442L404.766,406.443L404.739,406.429L378.974,386.161L378.951,386.135L378.934,386.099L378.925,386.057L378.925,386.012L378.933,385.969L378.95,385.933L378.972,385.906L378.999,385.891L379.027,385.891L379.054,385.904Z" style="fill:rgb(226,226,226);"/>
                    </g>
                </g>
                <g id="LED-green" serif:id="LED green" transform="matrix(0.442367,0.221184,0,0.442367,322.483,196.687)">
                    <circle cx="257.703" cy="316.533" r="5.651" style="fill:rgb(0,255,0);"/>
                </g>
            </g>
        </g>
    </g>
    <g transform="matrix(0.346512,0,0,0.348568,603.773,415.569)">
        <g transform="matrix(1,0,0,1,-640,-400)">
            <g id="Generic-Server-turned-on1" serif:id="Generic Server turned on" transform="matrix(6.94863,0,0,6.94863,-2619.32,-2036.52)">
                <g id="Chassis1" serif:id="Chassis">
                    <path d="M379.014,357.958L449.038,392.969L560.252,337.362L490.228,302.351L379.014,357.958Z" style="fill:rgb(102,102,102);fill-opacity:0.59;stroke:rgb(80,80,80);stroke-width:0.43px;stroke-dasharray:1.3,1.73,0,0;"/>
                    <path d="M449.038,392.969L449.038,407.386L560.252,351.779L560.252,337.362L449.038,392.969Z" style="fill:rgb(153,153,153);fill-opacity:0.59;stroke:rgb(80,80,80);stroke-width:0.43px;stroke-linejoin:miter;stroke-dasharray:1.3,1.73,0,0;stroke-dashoffset:2.16;"/>
                    <g transform="matrix(0.143913,0,0,0.143913,376.954,293.083)">
                        <path d="M14.311,550.967L500.879,794.251L500.879,694.076L14.311,450.791L14.311,550.967Z" style="fill:rgb(34,34,34);fill-opacity:0.59;stroke:rgb(80,80,80);stroke-width:3px;stroke-linejoin:miter;stroke-dasharray:9,12,0,0;stroke-dashoffset:18;"/>
                    </g>
                </g>
                <g id="Cooling1" serif:id="Cooling">
                    <g transform="matrix(1.60284,0,0,1,-224.584,-16.4973)">
                        <path d="M379.054,385.904L404.819,406.172L404.842,406.198L404.859,406.234L404.868,406.277L404.868,406.321L404.86,406.364L404.844,406.401L404.821,406.428L404.794,406.442L404.766,406.443L404.739,406.429L378.974,386.161L378.951,386.135L378.934,386.099L378.925,386.057L378.925,386.012L378.933,385.969L378.95,385.933L378.972,385.906L378.999,385.891L379.027,385.891L379.054,385.904Z" style="fill:rgb(226,226,226);"/>
                    </g>
                    <g transform="matrix(1.60284,0,0,1,-224.584,-21.3321)">
                        <path d="M379.054,385.904L404.819,406.172L404.842,406.198L404.859,406.234L404.868,406.277L404.868,406.321L404.86,406.364L404.844,406.401L404.821,406.428L404.794,406.442L404.766,406.443L404.739,406.429L378.974,386.161L378.951,386.135L378.934,386.099L378.925,386.057L378.925,386.012L378.933,385.969L378.95,385.933L378.972,385.906L378.999,385.891L379.027,385.891L379.054,385.904Z" style="fill:rgb(226,226,226);"/>
                    </g>
                </g>
                <g id="LED-green1" serif:id="LED green" transform="matrix(0.442367,0.221184,0,0.442367,322.483,196.687)">
                    <circle cx="257.703" cy="316.533" r="5.651" style="fill:rgb(0,255,0);"/>
                </g>
            </g>
        </g>
    </g>
    <g transform="matrix(2.27454,0,0,2.28804,-865.602,-289.75)">
        <path d="M475.256,393.641C475.256,393.641 516.916,371.696 530.502,364.539C531.319,364.109 531.825,363.261 531.816,362.342C531.806,361.424 531.281,360.587 530.455,360.174C513.126,351.509 448.379,319.136 434.61,312.251C434.106,312 433.785,311.491 433.775,310.93C433.766,310.37 434.071,309.851 434.566,309.583C443.402,304.799 472.258,289.176 472.258,289.176" style="fill:none;stroke:black;stroke-width:0.44px;"/>
    </g>
    <g transform="matrix(2.27454,0,0,2.28804,-804.57,-262.271)">
        <path d="M472.258,393.548C472.258,393.548 520.389,367.824 529.73,362.832C530.708,362.309 531.88,362.293 532.872,362.789C545.305,369.006 627.175,409.941 640.325,416.516C641.444,417.075 642.764,417.067 643.876,416.495C651.773,412.43 683.397,396.152 683.397,396.152" style="fill:none;stroke:black;stroke-width:0.44px;"/>
    </g>
    <g transform="matrix(0.284318,0,0,0.286004,189.356,676.391)">
        <g transform="matrix(1,0,0,1,-640,-400)">
            <g id="Switch" transform="matrix(11.1345,0,0,11.1345,-6559.06,-6942.66)">
                <g id="Chassis2" serif:id="Chassis">
                    <path d="M590.36,646.019L659.865,680.771L659.765,694.859L590.36,660.157L590.36,646.019Z" style="fill:rgb(0,82,117);"/>
                    <path d="M590.381,645.979L659.886,680.731L659.899,680.741L659.908,680.755L659.91,680.771L659.81,694.859L659.806,694.877L659.796,694.892L659.78,694.901L659.762,694.904L659.745,694.899L590.34,660.197L590.327,660.187L590.318,660.173L590.315,660.157L590.315,646.019L590.319,646.001L590.33,645.986L590.345,645.977L590.363,645.974L590.381,645.979ZM590.406,660.129L659.721,694.787L659.82,680.799L590.406,646.091L590.406,660.129Z"/>
                    <path d="M631.489,625.454L700.894,660.157L659.765,680.721L590.36,646.019L631.489,625.454Z" style="fill:rgb(0,146,207);"/>
                    <path d="M631.496,625.41L631.509,625.414L700.914,660.117L700.929,660.129L700.938,660.147L700.938,660.166L700.929,660.184L700.914,660.197L659.785,680.761L659.772,680.765L659.758,680.765L659.745,680.761L590.34,646.059L590.325,646.046L590.317,646.028L590.317,646.009L590.325,645.991L590.34,645.979L631.469,625.414L631.482,625.41L631.496,625.41ZM590.461,646.019L659.765,680.671L700.793,660.157L631.489,625.504L590.461,646.019Z"/>
                    <path d="M700.894,660.157L700.894,674.295L659.765,694.859L659.765,680.721L700.894,660.157Z" style="fill:rgb(0,179,254);"/>
                    <path d="M700.909,660.115L700.925,660.124L700.935,660.139L700.939,660.157L700.939,674.295L700.936,674.311L700.927,674.325L700.914,674.335L659.785,694.899L659.768,694.904L659.75,694.901L659.734,694.891L659.724,694.877L659.72,694.859L659.72,680.721L659.723,680.705L659.732,680.691L659.745,680.681L700.873,660.117L700.891,660.112L700.909,660.115ZM659.81,680.749L659.81,694.786L700.849,674.267L700.849,660.229L659.81,680.749Z"/>
                </g>
                <g id="Ports">
                    <g transform="matrix(0.576269,0.288256,0,0.576269,587.898,651.816)">
                        <g id="Ports1" serif:id="Ports">
                            <g id="ethernet-port" serif:id="ethernet port">
                                <path id="port" d="M120.25,-8.734C120.25,-8.835 120.184,-8.918 120.103,-8.918L96.397,-8.918C96.316,-8.918 96.25,-8.835 96.25,-8.734L96.25,9.898C96.25,10 96.316,10.082 96.397,10.082L120.103,10.082C120.184,10.082 120.25,10 120.25,9.898L120.25,-8.734Z"/>
                                <g id="side-1" serif:id="side 1" transform="matrix(0.171351,-0.0857116,0,0.171351,-26.4226,-53.6964)">
                                    <path d="M772.065,751.009L842.253,715.915L842.253,701.878L772.065,736.972L772.065,751.009Z" style="fill:rgb(69,69,69);"/>
                                </g>
                                <g id="top-2" serif:id="top 2" transform="matrix(0.171351,-0.0857116,0,0.171351,-26.4226,-53.6964)">
                                    <path d="M842.253,694.304L842.245,701.882L772.065,736.972L758.028,729.953L835.791,691.071L842.253,694.304Z" style="fill:rgb(37,37,37);fill-rule:nonzero;"/>
                                </g>
                                <g id="side2" transform="matrix(0.171351,-0.0857116,0,0.171351,-26.4226,-53.6964)">
                                    <path d="M821.757,684.051L835.791,691.071L758.028,729.953L758.028,715.915L821.757,684.051Z" style="fill:rgb(69,69,69);"/>
                                </g>
                                <g id="top-3" serif:id="top 3" transform="matrix(0.171351,-0.0857116,0,0.171351,-26.4226,-53.6964)">
                                    <path d="M729.953,701.878L793.687,670.01L821.757,684.051L758.028,715.915L729.953,701.878Z" style="fill:rgb(37,37,37);"/>
                                </g>
                                <g id="side-3" serif:id="side 3" transform="matrix(0.171351,-0.0857116,0,0.171351,-26.4226,-53.6964)">
                                    <path d="M793.687,670.01L729.953,701.878L729.953,656L729.953,638.13L793.687,670.01Z" style="fill:rgb(37,37,37);"/>
                                </g>
                                <g id="top-1" serif:id="top 1" transform="matrix(0.171351,-0.0857116,0,0.171351,-26.4226,-53.6964)">
                                    <path d="M776.339,748.872L842.229,715.927L842.198,744.018L827.999,751.118L814.178,744.222L814.178,758.028L813.972,758.131L800.141,751.682L800.141,760.778L776.339,748.872Z" style="fill:rgb(37,37,37);"/>
                                </g>
                                <g id="top-0" serif:id="top 0" transform="matrix(0.171351,-0.0857116,0,0.171351,-26.4226,-53.6964)">
                                    <path d="M842.213,729.973L842.182,757.992L814.178,743.99L842.213,729.973Z" style="fill:rgb(37,37,37);"/>
                                </g>
                                <path id="Jack" d="M98.655,-6.918L117.898,-6.918L117.886,4.036L113.087,4.042L113.087,6.442L110.682,6.524L110.682,8.082L105.871,8.082L105.871,6.427L103.466,6.447L103.466,4.042L98.655,4.042L98.655,-6.918Z" style="fill:none;fill-rule:nonzero;stroke:rgb(153,153,153);stroke-width:1px;stroke-linecap:butt;stroke-linejoin:miter;stroke-miterlimit:4;"/>
                                <g id="LED-green2" serif:id="LED green" transform="matrix(1,0,0,1,95.75,-441.78)">
                                    <path d="M6,447.92C6,447.887 5.979,447.86 5.952,447.86L2.048,447.86C2.021,447.86 2,447.887 2,447.92L2,450.3C2,450.333 2.021,450.36 2.048,450.36L5.952,450.36C5.979,450.36 6,450.333 6,450.3L6,447.92Z" style="fill:rgb(0,255,0);"/>
                                </g>
                                <g id="LED-yellow" serif:id="LED yellow" transform="matrix(1,0,0,1,95.75,-441.78)">
                                    <path d="M23,447.92C23,447.887 22.979,447.86 22.952,447.86L19.048,447.86C19.021,447.86 19,447.887 19,447.92L19,450.3C19,450.333 19.021,450.36 19.048,450.36L22.952,450.36C22.979,450.36 23,450.333 23,450.3L23,447.92Z" style="fill:rgb(255,204,0);"/>
                                </g>
                            </g>
                        </g>
                    </g>
                    <g transform="matrix(0.576269,0.288256,0,0.576269,570.882,643.308)">
                        <g id="Ports2" serif:id="Ports">
                            <g id="ethernet-port1" serif:id="ethernet port">
                                <path id="port1" serif:id="port" d="M120.25,-8.734C120.25,-8.835 120.184,-8.918 120.103,-8.918L96.397,-8.918C96.316,-8.918 96.25,-8.835 96.25,-8.734L96.25,9.898C96.25,10 96.316,10.082 96.397,10.082L120.103,10.082C120.184,10.082 120.25,10 120.25,9.898L120.25,-8.734Z"/>
                                <g id="side-11" serif:id="side 1" transform="matrix(0.171351,-0.0857116,0,0.171351,-26.4226,-53.6964)">
                                    <path d="M772.065,751.009L842.253,715.915L842.253,701.878L772.065,736.972L772.065,751.009Z" style="fill:rgb(69,69,69);"/>
                                </g>
                                <g id="top-21" serif:id="top 2" transform="matrix(0.171351,-0.0857116,0,0.171351,-26.4226,-53.6964)">
                                    <path d="M842.253,694.304L842.245,701.882L772.065,736.972L758.028,729.953L835.791,691.071L842.253,694.304Z" style="fill:rgb(37,37,37);fill-rule:nonzero;"/>
                                </g>
                                <g id="side21" serif:id="side2" transform="matrix(0.171351,-0.0857116,0,0.171351,-26.4226,-53.6964)">
                                    <path d="M821.757,684.051L835.791,691.071L758.028,729.953L758.028,715.915L821.757,684.051Z" style="fill:rgb(69,69,69);"/>
                                </g>
                                <g id="top-31" serif:id="top 3" transform="matrix(0.171351,-0.0857116,0,0.171351,-26.4226,-53.6964)">
                                    <path d="M729.953,701.878L793.687,670.01L821.757,684.051L758.028,715.915L729.953,701.878Z" style="fill:rgb(37,37,37);"/>
                                </g>
                                <g id="side-31" serif:id="side 3" transform="matrix(0.171351,-0.0857116,0,0.171351,-26.4226,-53.6964)">
                                    <path d="M793.687,670.01L729.953,701.878L729.953,656L729.953,638.13L793.687,670.01Z" style="fill:rgb(37,37,37);"/>
                                </g>
                                <g id="top-11" serif:id="top 1" transform="matrix(0.171351,-0.0857116,0,0.171351,-26.4226,-53.6964)">
                                    <path d="M776.339,748.872L842.229,715.927L842.198,744.018L827.999,751.118L814.178,744.222L814.178,758.028L813.972,758.131L800.141,751.682L800.141,760.778L776.339,748.872Z" style="fill:rgb(37,37,37);"/>
                                </g>
                                <g id="top-01" serif:id="top 0" transform="matrix(0.171351,-0.0857116,0,0.171351,-26.4226,-53.6964)">
                                    <path d="M842.213,729.973L842.182,757.992L814.178,743.99L842.213,729.973Z" style="fill:rgb(37,37,37);"/>
                                </g>
                                <path id="Jack1" serif:id="Jack" d="M98.655,-6.918L117.898,-6.918L117.886,4.036L113.087,4.042L113.087,6.442L110.682,6.524L110.682,8.082L105.871,8.082L105.871,6.427L103.466,6.447L103.466,4.042L98.655,4.042L98.655,-6.918Z" style="fill:none;fill-rule:nonzero;stroke:rgb(153,153,153);stroke-width:1px;stroke-linecap:butt;stroke-linejoin:miter;stroke-miterlimit:4;"/>
                                <g id="LED-green3" serif:id="LED green" transform="matrix(1,0,0,1,95.75,-441.78)">
                                    <path d="M6,447.92C6,447.887 5.979,447.86 5.952,447.86L2.048,447.86C2.021,447.86 2,447.887 2,447.92L2,450.3C2,450.333 2.021,450.36 2.048,450.36L5.952,450.36C5.979,450.36 6,450.333 6,450.3L6,447.92Z" style="fill:rgb(0,255,0);"/>
                                </g>
                                <g id="LED-yellow1" serif:id="LED yellow" transform="matrix(1,0,0,1,95.75,-441.78)">
                                    <path d="M23,447.92C23,447.887 22.979,447.86 22.952,447.86L19.048,447.86C19.021,447.86 19,447.887 19,447.92L19,450.3C19,450.333 19.021,450.36 19.048,450.36L22.952,450.36C22.979,450.36 23,450.333 23,450.3L23,447.92Z" style="fill:rgb(255,204,0);"/>
                                </g>
                            </g>
                        </g>
                    </g>
                    <g transform="matrix(0.576269,0.288256,0,0.576269,553.866,634.8)">
                        <g id="Ports3" serif:id="Ports">
                            <g id="ethernet-port2" serif:id="ethernet port">
                                <path id="port2" serif:id="port" d="M120.25,-8.734C120.25,-8.835 120.184,-8.918 120.103,-8.918L96.397,-8.918C96.316,-8.918 96.25,-8.835 96.25,-8.734L96.25,9.898C96.25,10 96.316,10.082 96.397,10.082L120.103,10.082C120.184,10.082 120.25,10 120.25,9.898L120.25,-8.734Z"/>
                                <g id="side-12" serif:id="side 1" transform="matrix(0.171351,-0.0857116,0,0.171351,-26.4226,-53.6964)">
                                    <path d="M772.065,751.009L842.253,715.915L842.253,701.878L772.065,736.972L772.065,751.009Z" style="fill:rgb(69,69,69);"/>
                                </g>
                                <g id="top-22" serif:id="top 2" transform="matrix(0.171351,-0.0857116,0,0.171351,-26.4226,-53.6964)">
                                    <path d="M842.253,694.304L842.245,701.882L772.065,736.972L758.028,729.953L835.791,691.071L842.253,694.304Z" style="fill:rgb(37,37,37);fill-rule:nonzero;"/>
                                </g>
                                <g id="side22" serif:id="side2" transform="matrix(0.171351,-0.0857116,0,0.171351,-26.4226,-53.6964)">
                                    <path d="M821.757,684.051L835.791,691.071L758.028,729.953L758.028,715.915L821.757,684.051Z" style="fill:rgb(69,69,69);"/>
                                </g>
                                <g id="top-32" serif:id="top 3" transform="matrix(0.171351,-0.0857116,0,0.171351,-26.4226,-53.6964)">
                                    <path d="M729.953,701.878L793.687,670.01L821.757,684.051L758.028,715.915L729.953,701.878Z" style="fill:rgb(37,37,37);"/>
                                </g>
                                <g id="side-32" serif:id="side 3" transform="matrix(0.171351,-0.0857116,0,0.171351,-26.4226,-53.6964)">
                                    <path d="M793.687,670.01L729.953,701.878L729.953,656L729.953,638.13L793.687,670.01Z" style="fill:rgb(37,37,37);"/>
                                </g>
                                <g id="top-12" serif:id="top 1" transform="matrix(0.171351,-0.0857116,0,0.171351,-26.4226,-53.6964)">
                                    <path d="M776.339,748.872L842.229,715.927L842.198,744.018L827.999,751.118L814.178,744.222L814.178,758.028L813.972,758.131L800.141,751.682L800.141,760.778L776.339,748.872Z" style="fill:rgb(37,37,37);"/>
                                </g>
                                <g id="top-02" serif:id="top 0" transform="matrix(0.171351,-0.0857116,0,0.171351,-26.4226,-53.6964)">
                                    <path d="M842.213,729.973L842.182,757.992L814.178,743.99L842.213,729.973Z" style="fill:rgb(37,37,37);"/>
                                </g>
                                <path id="Jack2" serif:id="Jack" d="M98.655,-6.918L117.898,-6.918L117.886,4.036L113.087,4.042L113.087,6.442L110.682,6.524L110.682,8.082L105.871,8.082L105.871,6.427L103.466,6.447L103.466,4.042L98.655,4.042L98.655,-6.918Z" style="fill:none;fill-rule:nonzero;stroke:rgb(153,153,153);stroke-width:1px;stroke-linecap:butt;stroke-linejoin:miter;stroke-miterlimit:4;"/>
                                <g id="LED-green4" serif:id="LED green" transform="matrix(1,0,0,1,95.75,-441.78)">
                                    <path d="M6,447.92C6,447.887 5.979,447.86 5.952,447.86L2.048,447.86C2.021,447.86 2,447.887 2,447.92L2,450.3C2,450.333 2.021,450.36 2.048,450.36L5.952,450.36C5.979,450.36 6,450.333 6,450.3L6,447.92Z" style="fill:rgb(0,255,0);"/>
                                </g>
                                <g id="LED-yellow2" serif:id="LED yellow" transform="matrix(1,0,0,1,95.75,-441.78)">
                                    <path d="M23,447.92C23,447.887 22.979,447.86 22.952,447.86L19.048,447.86C19.021,447.86 19,447.887 19,447.92L19,450.3C19,450.333 19.021,450.36 19.048,450.36L22.952,450.36C22.979,450.36 23,450.333 23,450.3L23,447.92Z" style="fill:rgb(255,204,0);"/>
                                </g>
                            </g>
                        </g>
                    </g>
                    <g transform="matrix(0.576269,0.288256,0,0.576269,536.85,626.291)">
                        <g id="Ports4" serif:id="Ports">
                            <g id="ethernet-port3" serif:id="ethernet port">
                                <path id="port3" serif:id="port" d="M120.25,-8.734C120.25,-8.835 120.184,-8.918 120.103,-8.918L96.397,-8.918C96.316,-8.918 96.25,-8.835 96.25,-8.734L96.25,9.898C96.25,10 96.316,10.082 96.397,10.082L120.103,10.082C120.184,10.082 120.25,10 120.25,9.898L120.25,-8.734Z"/>
                                <g id="side-13" serif:id="side 1" transform="matrix(0.171351,-0.0857116,0,0.171351,-26.4226,-53.6964)">
                                    <path d="M772.065,751.009L842.253,715.915L842.253,701.878L772.065,736.972L772.065,751.009Z" style="fill:rgb(69,69,69);"/>
                                </g>
                                <g id="top-23" serif:id="top 2" transform="matrix(0.171351,-0.0857116,0,0.171351,-26.4226,-53.6964)">
                                    <path d="M842.253,694.304L842.245,701.882L772.065,736.972L758.028,729.953L835.791,691.071L842.253,694.304Z" style="fill:rgb(37,37,37);fill-rule:nonzero;"/>
                                </g>
                                <g id="side23" serif:id="side2" transform="matrix(0.171351,-0.0857116,0,0.171351,-26.4226,-53.6964)">
                                    <path d="M821.757,684.051L835.791,691.071L758.028,729.953L758.028,715.915L821.757,684.051Z" style="fill:rgb(69,69,69);"/>
                                </g>
                                <g id="top-33" serif:id="top 3" transform="matrix(0.171351,-0.0857116,0,0.171351,-26.4226,-53.6964)">
                                    <path d="M729.953,701.878L793.687,670.01L821.757,684.051L758.028,715.915L729.953,701.878Z" style="fill:rgb(37,37,37);"/>
                                </g>
                                <g id="side-33" serif:id="side 3" transform="matrix(0.171351,-0.0857116,0,0.171351,-26.4226,-53.6964)">
                                    <path d="M793.687,670.01L729.953,701.878L729.953,656L729.953,638.13L793.687,670.01Z" style="fill:rgb(37,37,37);"/>
                                </g>
                                <g id="top-13" serif:id="top 1" transform="matrix(0.171351,-0.0857116,0,0.171351,-26.4226,-53.6964)">
                                    <path d="M776.339,748.872L842.229,715.927L842.198,744.018L827.999,751.118L814.178,744.222L814.178,758.028L813.972,758.131L800.141,751.682L800.141,760.778L776.339,748.872Z" style="fill:rgb(37,37,37);"/>
                                </g>
                                <g id="top-03" serif:id="top 0" transform="matrix(0.171351,-0.0857116,0,0.171351,-26.4226,-53.6964)">
                                    <path d="M842.213,729.973L842.182,757.992L814.178,743.99L842.213,729.973Z" style="fill:rgb(37,37,37);"/>
                                </g>
                                <path id="Jack3" serif:id="Jack" d="M98.655,-6.918L117.898,-6.918L117.886,4.036L113.087,4.042L113.087,6.442L110.682,6.524L110.682,8.082L105.871,8.082L105.871,6.427L103.466,6.447L103.466,4.042L98.655,4.042L98.655,-6.918Z" style="fill:none;fill-rule:nonzero;stroke:rgb(153,153,153);stroke-width:1px;stroke-linecap:butt;stroke-linejoin:miter;stroke-miterlimit:4;"/>
                                <g id="LED-green5" serif:id="LED green" transform="matrix(1,0,0,1,95.75,-441.78)">
                                    <path d="M6,447.92C6,447.887 5.979,447.86 5.952,447.86L2.048,447.86C2.021,447.86 2,447.887 2,447.92L2,450.3C2,450.333 2.021,450.36 2.048,450.36L5.952,450.36C5.979,450.36 6,450.333 6,450.3L6,447.92Z" style="fill:rgb(0,255,0);"/>
                                </g>
                                <g id="LED-yellow3" serif:id="LED yellow" transform="matrix(1,0,0,1,95.75,-441.78)">
                                    <path d="M23,447.92C23,447.887 22.979,447.86 22.952,447.86L19.048,447.86C19.021,447.86 19,447.887 19,447.92L19,450.3C19,450.333 19.021,450.36 19.048,450.36L22.952,450.36C22.979,450.36 23,450.333 23,450.3L23,447.92Z" style="fill:rgb(255,204,0);"/>
                                </g>
                            </g>
                        </g>
                    </g>
                </g>
            </g>
        </g>
    </g>
    <g transform="matrix(0.346428,0,0,0.348483,338.769,282.342)">
        <g transform="matrix(1,0,0,1,-640,-400)">
            <g id="Generic-Server-turned-on2" serif:id="Generic Server turned on" transform="matrix(6.94863,0,0,6.94863,-2619.32,-2036.52)">
                <g id="Chassis3" serif:id="Chassis">
                    <path d="M379.014,357.958L449.038,392.969L560.252,337.362L490.228,302.351L379.014,357.958Z" style="fill:rgb(102,102,102);"/>
                    <path d="M449.038,392.969L449.038,407.386L560.252,351.779L560.252,337.362L449.038,392.969Z" style="fill:rgb(153,153,153);"/>
                    <g transform="matrix(0.143913,0,0,0.143913,376.954,293.083)">
                        <path d="M14.311,550.967L500.879,794.251L500.879,694.076L14.311,450.791L14.311,550.967Z" style="fill:rgb(34,34,34);"/>
                    </g>
                </g>
                <g id="Cooling2" serif:id="Cooling">
                    <g transform="matrix(1.60284,0,0,1,-224.584,-16.4973)">
                        <path d="M379.054,385.904L404.819,406.172L404.842,406.198L404.859,406.234L404.868,406.277L404.868,406.321L404.86,406.364L404.844,406.401L404.821,406.428L404.794,406.442L404.766,406.443L404.739,406.429L378.974,386.161L378.951,386.135L378.934,386.099L378.925,386.057L378.925,386.012L378.933,385.969L378.95,385.933L378.972,385.906L378.999,385.891L379.027,385.891L379.054,385.904Z" style="fill:rgb(226,226,226);"/>
                    </g>
                    <g transform="matrix(1.60284,0,0,1,-224.584,-21.3321)">
                        <path d="M379.054,385.904L404.819,406.172L404.842,406.198L404.859,406.234L404.868,406.277L404.868,406.321L404.86,406.364L404.844,406.401L404.821,406.428L404.794,406.442L404.766,406.443L404.739,406.429L378.974,386.161L378.951,386.135L378.934,386.099L378.925,386.057L378.925,386.012L378.933,385.969L378.95,385.933L378.972,385.906L378.999,385.891L379.027,385.891L379.054,385.904Z" style="fill:rgb(226,226,226);"/>
                    </g>
                </g>
                <g id="LED-green6" serif:id="LED green" transform="matrix(0.442367,0.221184,0,0.442367,322.483,196.687)">
                    <circle cx="257.703" cy="316.533" r="5.651" style="fill:rgb(0,255,0);"/>
                </g>
            </g>
        </g>
    </g>
    <g transform="matrix(2.27454,0,0,2.28804,-865.602,-289.75)">
        <path d="M580.963,347.725L491.164,398.406" style="fill:none;stroke:black;stroke-width:0.44px;"/>
    </g>
    <g transform="matrix(1.10489,-0.556569,1.38616,0.695214,-538.125,423.453)">
        <text x="731.593px" y="207.282px" style="font-family:'Comfortaa', sans-serif;font-size:20px;">192.168.178.210/24</text>
    </g>
    <g transform="matrix(1.10489,-0.556569,1.38616,0.695214,-807.388,558.558)">
        <text x="731.554px" y="207.282px" style="font-family:'Comfortaa', sans-serif;font-size:20px;">physical</text>
    </g>
    <g transform="matrix(1.10489,-0.556569,1.38616,0.695214,-528.97,692.604)">
        <text x="728.917px" y="207.282px" style="font-family:'Comfortaa', sans-serif;font-size:20px;">virtual IP</text>
    </g>
    <g transform="matrix(1.10489,-0.556569,1.38616,0.695214,-242.06,833.894)">
        <text x="723.155px" y="207.282px" style="font-family:'Comfortaa', sans-serif;font-size:20px;">physical 2</text>
    </g>
    <g transform="matrix(1.10489,-0.556569,1.38616,0.695214,-538.125,423.453)">
        <text x="731.593px" y="207.282px" style="font-family:'Comfortaa', sans-serif;font-size:20px;">192.168.178.210/24</text>
    </g>
    <g transform="matrix(1.10489,-0.556569,1.38616,0.695214,-266.605,560.019)">
        <text x="731.593px" y="207.282px" style="font-family:'Comfortaa', sans-serif;font-size:20px;fill:rgb(0,129,4);">192.168.178.201/24</text>
    </g>
    <g transform="matrix(1.10489,-0.556569,1.38616,0.695214,15.235,701.775)">
        <text x="734.327px" y="207.282px" style="font-family:'Comfortaa', sans-serif;font-size:20px;">192.168.178.211/24</text>
    </g>
</svg>
